STARTFONT 2.1
FONT -Adobe-Helvetica-Medium-O-Narrow--25-180-100-100-P-111-ISO8859-1
SIZE 18 100 100
FONTBOUNDINGBOX 27 24 -4 -5

STARTPROPERTIES 26
_DEC_DEVICE_FONTNAMES "PS=Helvetica-Narrow-Oblique"
FONTNAME_REGISTRY ""
FAMILY_NAME "Helvetica"
FOUNDRY "Adobe"
WEIGHT_NAME "Medium"
SLANT "O"
SETWIDTH_NAME "Narrow"
ADD_STYLE_NAME ""
PIXEL_SIZE 25
POINT_SIZE 180
RESOLUTION_X 100
RESOLUTION_Y 100
SPACING "P"
AVERAGE_WIDTH 111
CHARSET_REGISTRY "ISO8859"
CHARSET_ENCODING "1"
CHARSET_COLLECTIONS "ASCII ISO8859-1 ADOBE-STANDARD"
FULL_NAME "Helvetica Narrow Oblique"
COPYRIGHT "Copyright (c) 1991 Adobe Systems, Inc."
CAP_HEIGHT 19
X_HEIGHT 14
WEIGHT 10
QUAD_WIDTH 12
DEFAULT_CHAR 0
FONT_DESCENT 5
FONT_ASCENT 19
ENDPROPERTIES

CHARS 190

STARTCHAR space
ENCODING 32
SWIDTH 228 0
DWIDTH 5 0
BBX 1 1 0 0
BITMAP
00
ENDCHAR

STARTCHAR exclam
ENCODING 33
SWIDTH 228 0
DWIDTH 6 0
BBX 5 19 2 0
BITMAP
18
18
18
18
18
30
30
30
30
30
60
60
60
60
60
00
00
C0
C0
ENDCHAR

STARTCHAR quotedbl
ENCODING 34
SWIDTH 291 0
DWIDTH 7 0
BBX 6 7 3 12
BITMAP
6C
6C
6C
D8
D8
D8
90
ENDCHAR

STARTCHAR numbersign
ENCODING 35
SWIDTH 456 0
DWIDTH 12 0
BBX 13 18 1 0
BITMAP
0330
0330
0330
0660
0660
3FF8
3FF8
0CC0
0CC0
1980
1980
FFE0
FFE0
3300
3300
6600
6600
6600
ENDCHAR

STARTCHAR dollar
ENCODING 36
SWIDTH 456 0
DWIDTH 12 0
BBX 11 20 1 -1
BITMAP
0080
07C0
0FE0
1960
3960
3260
3200
3200
3C00
1E00
0F80
05C0
04C0
C4C0
C8C0
C980
6980
7F00
3E00
1000
ENDCHAR

STARTCHAR percent
ENCODING 37
SWIDTH 729 0
DWIDTH 18 0
BBX 15 18 3 0
BITMAP
0004
1C0C
3E18
6610
C630
C660
CC40
F8C0
7180
0100
031C
063E
0466
0CC6
18C6
10CC
30F8
6070
ENDCHAR

STARTCHAR ampersand
ENCODING 38
SWIDTH 547 0
DWIDTH 14 0
BBX 14 18 1 0
BITMAP
0700
0F80
18C0
18C0
18C0
18C0
1980
0F00
1E00
3E30
7730
63B0
C1E0
C0E0
C1E0
E3F0
7F38
3E1C
ENDCHAR

STARTCHAR quoteright
ENCODING 39
SWIDTH 182 0
DWIDTH 4 0
BBX 3 5 3 14
BITMAP
60
60
20
40
80
ENDCHAR

STARTCHAR parenleft
ENCODING 40
SWIDTH 273 0
DWIDTH 7 0
BBX 7 24 2 -5
BITMAP
06
0C
18
30
30
60
60
60
C0
C0
C0
C0
C0
C0
C0
C0
C0
C0
C0
60
60
20
30
10
ENDCHAR

STARTCHAR parenright
ENCODING 41
SWIDTH 273 0
DWIDTH 8 0
BBX 7 24 1 -5
BITMAP
30
18
08
0C
0C
06
06
06
06
06
06
06
06
06
06
06
0C
0C
0C
18
18
30
60
C0
ENDCHAR

STARTCHAR asterisk
ENCODING 42
SWIDTH 319 0
DWIDTH 8 0
BBX 7 6 3 13
BITMAP
10
56
7C
38
6C
CC
ENDCHAR

STARTCHAR plus
ENCODING 43
SWIDTH 479 0
DWIDTH 12 0
BBX 9 12 2 0
BITMAP
0C00
0C00
0C00
0C00
0C00
FF80
FF80
1800
1800
1800
1800
1800
ENDCHAR

STARTCHAR comma
ENCODING 44
SWIDTH 228 0
DWIDTH 6 0
BBX 3 5 1 -3
BITMAP
60
60
20
40
80
ENDCHAR

STARTCHAR minus
ENCODING 45
SWIDTH 479 0
DWIDTH 12 0
BBX 9 2 2 5
BITMAP
FF80
FF80
ENDCHAR

STARTCHAR period
ENCODING 46
SWIDTH 228 0
DWIDTH 6 0
BBX 2 2 2 0
BITMAP
C0
C0
ENDCHAR

STARTCHAR slash
ENCODING 47
SWIDTH 228 0
DWIDTH 6 0
BBX 9 18 0 0
BITMAP
0080
0080
0100
0100
0200
0200
0400
0400
0800
0800
1000
1000
2000
2000
4000
4000
8000
8000
ENDCHAR

STARTCHAR zero
ENCODING 48
SWIDTH 456 0
DWIDTH 12 0
BBX 10 18 2 0
BITMAP
0F00
1F80
30C0
30C0
60C0
60C0
60C0
60C0
C0C0
C0C0
C180
C180
C180
C180
C300
C300
7E00
3C00
ENDCHAR

STARTCHAR one
ENCODING 49
SWIDTH 456 0
DWIDTH 12 0
BBX 5 18 5 0
BITMAP
18
18
38
F8
18
30
30
30
30
30
60
60
60
60
C0
C0
C0
C0
ENDCHAR

STARTCHAR two
ENCODING 50
SWIDTH 456 0
DWIDTH 12 0
BBX 11 18 1 0
BITMAP
0780
0FC0
1860
1860
3060
3060
00E0
01C0
0380
0E00
1C00
3800
7000
6000
C000
C000
FF80
FF80
ENDCHAR

STARTCHAR three
ENCODING 51
SWIDTH 456 0
DWIDTH 12 0
BBX 11 18 1 0
BITMAP
0780
0FC0
18E0
3060
3060
0060
00C0
0180
0F00
0F80
01C0
00C0
00C0
C0C0
C180
E380
7F00
3C00
ENDCHAR

STARTCHAR four
ENCODING 52
SWIDTH 456 0
DWIDTH 12 0
BBX 10 18 1 0
BITMAP
00C0
01C0
03C0
06C0
0CC0
0CC0
18C0
30C0
3180
6180
6180
C180
FFC0
FFC0
0300
0300
0300
0300
ENDCHAR

STARTCHAR five
ENCODING 53
SWIDTH 456 0
DWIDTH 12 0
BBX 11 18 1 0
BITMAP
1FE0
1FE0
1800
1800
3000
3000
3700
3F80
31C0
00C0
00C0
00C0
00C0
C0C0
C180
E380
7F00
3C00
ENDCHAR

STARTCHAR six
ENCODING 54
SWIDTH 456 0
DWIDTH 12 0
BBX 10 18 2 0
BITMAP
0780
0FC0
18C0
30C0
3000
6000
6000
CF00
DF80
F180
E180
C180
C180
C180
C300
C700
7E00
3800
ENDCHAR

STARTCHAR seven
ENCODING 55
SWIDTH 456 0
DWIDTH 12 0
BBX 10 18 4 0
BITMAP
FFC0
FFC0
0180
0300
0600
0600
0C00
0C00
1800
1800
3000
3000
6000
6000
6000
C000
C000
C000
ENDCHAR

STARTCHAR eight
ENCODING 56
SWIDTH 456 0
DWIDTH 12 0
BBX 10 18 1 0
BITMAP
0700
1F80
18C0
30C0
30C0
30C0
3180
1F80
3F00
7180
60C0
C0C0
C0C0
C0C0
C0C0
6180
7F80
3E00
ENDCHAR

STARTCHAR nine
ENCODING 57
SWIDTH 456 0
DWIDTH 12 0
BBX 10 18 2 0
BITMAP
0700
1F80
19C0
30C0
30C0
60C0
60C0
60C0
60C0
6180
7F80
3D80
0180
0300
8300
C600
FE00
7800
ENDCHAR

STARTCHAR colon
ENCODING 58
SWIDTH 228 0
DWIDTH 6 0
BBX 4 12 2 0
BITMAP
30
30
00
00
00
00
00
00
00
00
C0
C0
ENDCHAR

STARTCHAR semicolon
ENCODING 59
SWIDTH 228 0
DWIDTH 6 0
BBX 5 15 1 -3
BITMAP
18
18
00
00
00
00
00
00
00
00
60
60
20
40
80
ENDCHAR

STARTCHAR less
ENCODING 60
SWIDTH 479 0
DWIDTH 12 0
BBX 11 9 2 2
BITMAP
00E0
03C0
0F00
3C00
F000
F000
3C00
0F00
0380
ENDCHAR

STARTCHAR equal
ENCODING 61
SWIDTH 479 0
DWIDTH 12 0
BBX 10 6 2 3
BITMAP
7FC0
7FC0
0000
0000
FF80
FF80
ENDCHAR

STARTCHAR greater
ENCODING 62
SWIDTH 479 0
DWIDTH 12 0
BBX 11 9 1 2
BITMAP
3800
1E00
0780
01E0
01E0
0780
1E00
7800
E000
ENDCHAR

STARTCHAR question
ENCODING 63
SWIDTH 456 0
DWIDTH 11 0
BBX 9 19 4 0
BITMAP
1E00
3F00
6180
C180
C180
C180
0300
0600
0C00
1800
3000
3000
6000
6000
6000
0000
0000
C000
C000
ENDCHAR

STARTCHAR at
ENCODING 64
SWIDTH 832 0
DWIDTH 21 0
BBX 20 22 2 -3
BITMAP
007E00
01FF80
0380C0
060060
0C0060
183B30
30FF30
31C630
630630
630C30
C60C60
C60C60
CC1860
CC18C0
CC30C0
CC3180
C7FF00
63DE00
600000
380000
1FE000
07C000
ENDCHAR

STARTCHAR A
ENCODING 65
SWIDTH 547 0
DWIDTH 14 0
BBX 12 19 1 0
BITMAP
00C0
01C0
01C0
0360
0360
0660
0660
0C60
0C60
1860
1860
3060
3FF0
3FF0
6030
6030
C030
C030
C030
ENDCHAR

STARTCHAR B
ENCODING 66
SWIDTH 547 0
DWIDTH 14 0
BBX 14 19 1 0
BITMAP
1FE0
1FF8
1818
180C
180C
300C
3018
3038
3FF0
3FE0
6030
6018
6018
6018
6018
C030
C070
FFE0
FFC0
ENDCHAR

STARTCHAR C
ENCODING 67
SWIDTH 592 0
DWIDTH 15 0
BBX 14 19 2 0
BITMAP
01F0
07F8
0E1C
180C
300C
300C
6000
6000
C000
C000
C000
C000
C000
C018
C018
6030
70E0
3FC0
1F00
ENDCHAR

STARTCHAR D
ENCODING 68
SWIDTH 592 0
DWIDTH 16 0
BBX 14 19 2 0
BITMAP
1FC0
1FF0
1838
1818
180C
300C
300C
300C
300C
300C
600C
6018
6018
6018
6030
C070
C0E0
FFC0
FF00
ENDCHAR

STARTCHAR E
ENCODING 69
SWIDTH 547 0
DWIDTH 12 0
BBX 13 19 1 0
BITMAP
1FF8
1FF8
1800
1800
1800
3000
3000
3000
3000
3FE0
7FE0
6000
6000
6000
6000
C000
C000
FFC0
FFC0
ENDCHAR

STARTCHAR F
ENCODING 70
SWIDTH 501 0
DWIDTH 12 0
BBX 13 19 1 0
BITMAP
1FF8
1FF8
1800
1800
1800
3000
3000
3000
3000
3FE0
7FE0
6000
6000
6000
6000
C000
C000
C000
C000
ENDCHAR

STARTCHAR G
ENCODING 71
SWIDTH 638 0
DWIDTH 17 0
BBX 15 19 2 0
BITMAP
01F0
07F8
0E1C
180C
3006
3006
6000
6000
C000
C0FE
C0FE
C00C
C00C
C018
C018
6038
70F0
3FF0
1F30
ENDCHAR

STARTCHAR H
ENCODING 72
SWIDTH 592 0
DWIDTH 15 0
BBX 14 19 2 0
BITMAP
180C
180C
180C
180C
180C
3018
3018
3018
3018
3FF8
7FF0
6030
6030
6030
6030
C060
C060
C060
C060
ENDCHAR

STARTCHAR I
ENCODING 73
SWIDTH 228 0
DWIDTH 6 0
BBX 5 19 2 0
BITMAP
18
18
18
18
18
30
30
30
30
30
60
60
60
60
60
C0
C0
C0
C0
ENDCHAR

STARTCHAR J
ENCODING 74
SWIDTH 410 0
DWIDTH 10 0
BBX 11 19 0 0
BITMAP
0060
0060
0060
0060
0060
00C0
00C0
00C0
00C0
00C0
0180
0180
C180
C180
C300
C300
C300
7E00
3C00
ENDCHAR

STARTCHAR K
ENCODING 75
SWIDTH 547 0
DWIDTH 13 0
BBX 14 19 1 0
BITMAP
180C
1818
1830
1860
18C0
3180
3300
3600
3E00
3B00
6300
6180
6180
60C0
60C0
C060
C060
C030
C030
ENDCHAR

STARTCHAR L
ENCODING 76
SWIDTH 456 0
DWIDTH 11 0
BBX 12 19 1 0
BITMAP
1800
1800
1800
1800
1800
3000
3000
3000
3000
3000
6000
6000
6000
6000
6000
C000
C000
FF80
FF80
ENDCHAR

STARTCHAR M
ENCODING 77
SWIDTH 683 0
DWIDTH 17 0
BBX 17 19 1 0
BITMAP
1C0380
1C0380
1C0780
1C0780
1C0D80
3C0F00
361B00
361B00
363300
363300
666600
666600
666600
66C600
66C600
C38C00
C38C00
C30C00
C30C00
ENDCHAR

STARTCHAR N
ENCODING 78
SWIDTH 592 0
DWIDTH 15 0
BBX 15 19 1 0
BITMAP
1C06
1C06
1C06
1C06
1E06
360C
360C
330C
330C
330C
6198
6198
6198
60D8
60D8
C0D8
C0F0
C070
C070
ENDCHAR

STARTCHAR O
ENCODING 79
SWIDTH 638 0
DWIDTH 16 0
BBX 15 19 2 0
BITMAP
01F0
07F8
0E1C
180C
3006
3006
6006
6006
C006
C006
C006
C00C
C00C
C018
C018
6030
70E0
3FC0
1F00
ENDCHAR

STARTCHAR P
ENCODING 80
SWIDTH 547 0
DWIDTH 13 0
BBX 14 19 1 0
BITMAP
1FE0
1FF8
1818
180C
180C
300C
3018
3038
3FF0
3FE0
6000
6000
6000
6000
6000
C000
C000
C000
C000
ENDCHAR

STARTCHAR Q
ENCODING 81
SWIDTH 638 0
DWIDTH 16 0
BBX 15 19 2 0
BITMAP
01F0
07F8
0E1C
180C
3006
3006
6006
6006
C006
C006
C006
C00C
C00C
C018
C398
61F0
70E0
3FF0
1F38
ENDCHAR

STARTCHAR R
ENCODING 82
SWIDTH 592 0
DWIDTH 15 0
BBX 14 19 2 0
BITMAP
1FE0
1FF8
1818
180C
180C
300C
3018
3038
3FF0
3FE0
60C0
6060
6060
6030
6030
C030
C030
C030
C030
ENDCHAR

STARTCHAR S
ENCODING 83
SWIDTH 547 0
DWIDTH 14 0
BBX 13 19 1 0
BITMAP
03E0
0FF0
1C38
1818
3018
3000
3800
1C00
0F00
07C0
01E0
0070
0030
C030
C030
C060
E0E0
7FC0
3F00
ENDCHAR

STARTCHAR T
ENCODING 84
SWIDTH 501 0
DWIDTH 13 0
BBX 15 19 0 0
BITMAP
1FFE
1FFE
00C0
00C0
00C0
0180
0180
0180
0180
0180
0300
0300
0300
0300
0300
0600
0600
0600
0600
ENDCHAR

STARTCHAR U
ENCODING 85
SWIDTH 592 0
DWIDTH 15 0
BBX 13 19 3 0
BITMAP
3018
3018
3018
3018
6018
6030
6030
6030
6030
C030
C060
C060
C060
C060
C0C0
C0C0
E180
7F80
3E00
ENDCHAR

STARTCHAR V
ENCODING 86
SWIDTH 547 0
DWIDTH 14 0
BBX 12 19 4 0
BITMAP
C030
C030
C060
C060
C0C0
C0C0
6180
6180
6180
6300
6300
6600
6600
6C00
3C00
3800
3800
3000
3000
ENDCHAR

STARTCHAR W
ENCODING 87
SWIDTH 774 0
DWIDTH 19 0
BBX 17 19 4 0
BITMAP
C0C180
C0C180
C1C180
C1C300
C36300
C36300
636600
666600
666600
666600
6C6C00
6C6C00
6C6C00
383800
383800
383800
303000
303000
303000
ENDCHAR

STARTCHAR X
ENCODING 88
SWIDTH 547 0
DWIDTH 14 0
BBX 13 19 1 0
BITMAP
1818
1818
1830
0C30
0C60
0C60
06C0
0680
0380
0700
0700
0D80
1980
1980
30C0
60C0
60C0
C060
C060
ENDCHAR

STARTCHAR Y
ENCODING 89
SWIDTH 547 0
DWIDTH 14 0
BBX 12 19 4 0
BITMAP
C030
C030
C060
6060
60C0
6180
3180
3300
3600
1E00
1C00
1800
1800
1800
1800
3000
3000
3000
3000
ENDCHAR

STARTCHAR Z
ENCODING 90
SWIDTH 501 0
DWIDTH 12 0
BBX 14 19 0 0
BITMAP
1FFC
1FFC
0018
0030
0030
0060
00C0
00C0
0180
0300
0300
0600
0C00
1800
1800
3000
6000
FFE0
FFE0
ENDCHAR

STARTCHAR bracketleft
ENCODING 91
SWIDTH 228 0
DWIDTH 6 0
BBX 8 24 0 -5
BITMAP
0F
0F
0C
0C
0C
18
18
18
18
18
30
30
30
30
60
60
60
60
60
C0
C0
C0
F0
F0
ENDCHAR

STARTCHAR backslash
ENCODING 92
SWIDTH 228 0
DWIDTH 6 0
BBX 2 19 3 0
BITMAP
80
80
80
80
80
80
80
80
80
40
40
40
40
40
40
40
40
40
40
ENDCHAR

STARTCHAR bracketright
ENCODING 93
SWIDTH 228 0
DWIDTH 6 0
BBX 8 24 0 -5
BITMAP
0F
0F
03
03
03
06
06
06
06
06
0C
0C
0C
0C
18
18
18
18
18
30
30
30
F0
F0
ENDCHAR

STARTCHAR asciicircum
ENCODING 94
SWIDTH 385 0
DWIDTH 10 0
BBX 7 9 3 9
BITMAP
0C
1C
1C
34
34
66
66
C6
C6
ENDCHAR

STARTCHAR underscore
ENCODING 95
SWIDTH 456 0
DWIDTH 11 0
BBX 11 1 -1 -4
BITMAP
FFE0
ENDCHAR

STARTCHAR quoteleft
ENCODING 96
SWIDTH 182 0
DWIDTH 4 0
BBX 3 5 3 14
BITMAP
20
40
80
C0
C0
ENDCHAR

STARTCHAR a
ENCODING 97
SWIDTH 456 0
DWIDTH 11 0
BBX 10 14 1 0
BITMAP
0F80
1FC0
30C0
30C0
00C0
0F80
3F80
7180
C180
C300
C300
C700
7F80
3980
ENDCHAR

STARTCHAR b
ENCODING 98
SWIDTH 456 0
DWIDTH 11 0
BBX 11 19 0 0
BITMAP
1800
1800
1800
1800
3000
3380
3FC0
3C60
3060
3060
6060
6060
6060
6060
60C0
E0C0
F180
DF80
CE00
ENDCHAR

STARTCHAR c
ENCODING 99
SWIDTH 410 0
DWIDTH 10 0
BBX 10 14 1 0
BITMAP
0F00
3F80
30C0
60C0
60C0
6000
C000
C000
C000
C180
C180
C300
7F00
3C00
ENDCHAR

STARTCHAR d
ENCODING 100
SWIDTH 456 0
DWIDTH 11 0
BBX 12 19 1 0
BITMAP
0030
0030
0030
0030
0060
0E60
3F60
31E0
60E0
6060
C060
C0C0
C0C0
C0C0
C0C0
C180
6380
7F80
1D80
ENDCHAR

STARTCHAR e
ENCODING 101
SWIDTH 456 0
DWIDTH 11 0
BBX 10 14 1 0
BITMAP
0F00
3F80
30C0
60C0
60C0
7FC0
FFC0
C000
C000
C180
C180
C300
7F00
3C00
ENDCHAR

STARTCHAR f
ENCODING 102
SWIDTH 228 0
DWIDTH 6 0
BBX 7 19 2 0
BITMAP
0E
1E
18
18
18
7C
7C
30
30
30
60
60
60
60
60
C0
C0
C0
C0
ENDCHAR

STARTCHAR g
ENCODING 103
SWIDTH 456 0
DWIDTH 11 0
BBX 12 19 0 -5
BITMAP
07B0
1FF0
1860
3060
3060
3060
6060
6060
60C0
60C0
60C0
61C0
3FC0
1EC0
0180
C180
C300
7F00
3C00
ENDCHAR

STARTCHAR h
ENCODING 104
SWIDTH 456 0
DWIDTH 11 0
BBX 11 19 1 0
BITMAP
1800
1800
1800
1800
3000
33C0
37E0
3C60
3860
3060
6060
60C0
60C0
60C0
60C0
C180
C180
C180
C180
ENDCHAR

STARTCHAR i
ENCODING 105
SWIDTH 182 0
DWIDTH 5 0
BBX 5 19 1 0
BITMAP
18
18
18
00
00
30
30
30
30
60
60
60
60
60
C0
C0
C0
C0
C0
ENDCHAR

STARTCHAR j
ENCODING 106
SWIDTH 182 0
DWIDTH 5 0
BBX 8 24 -2 -5
BITMAP
03
03
03
00
00
06
06
06
06
0C
0C
0C
0C
0C
18
18
18
18
18
30
30
30
E0
E0
ENDCHAR

STARTCHAR k
ENCODING 107
SWIDTH 410 0
DWIDTH 10 0
BBX 10 19 1 0
BITMAP
1800
1800
1800
1800
3000
30C0
3180
3300
3600
3C00
7C00
7600
6600
6300
6300
C300
C180
C180
C180
ENDCHAR

STARTCHAR l
ENCODING 108
SWIDTH 182 0
DWIDTH 5 0
BBX 5 19 1 0
BITMAP
18
18
18
18
18
30
30
30
30
30
60
60
60
60
60
C0
C0
C0
C0
ENDCHAR

STARTCHAR m
ENCODING 109
SWIDTH 683 0
DWIDTH 17 0
BBX 16 14 1 0
BITMAP
338E
37DF
3CF3
38E3
30C3
6183
6186
6186
6186
6186
C30C
C30C
C30C
C30C
ENDCHAR

STARTCHAR n
ENCODING 110
SWIDTH 456 0
DWIDTH 12 0
BBX 11 14 1 0
BITMAP
33C0
37E0
3C60
3860
3060
6060
60C0
60C0
60C0
60C0
C180
C180
C180
C180
ENDCHAR

STARTCHAR o
ENCODING 111
SWIDTH 456 0
DWIDTH 11 0
BBX 10 14 1 0
BITMAP
0F00
3F80
30C0
60C0
60C0
60C0
C0C0
C0C0
C180
C180
C180
C300
7F00
3C00
ENDCHAR

STARTCHAR p
ENCODING 112
SWIDTH 456 0
DWIDTH 11 0
BBX 12 19 -1 -5
BITMAP
19C0
1FE0
1E30
1830
1830
3030
3030
3030
3030
3060
7060
78C0
6FC0
6700
6000
C000
C000
C000
C000
ENDCHAR

STARTCHAR q
ENCODING 113
SWIDTH 456 0
DWIDTH 11 0
BBX 10 19 1 -5
BITMAP
0EC0
3FC0
31C0
60C0
60C0
C0C0
C0C0
C0C0
C180
C180
C180
6380
7F80
1D80
0180
0300
0300
0300
0300
ENDCHAR

STARTCHAR r
ENCODING 114
SWIDTH 273 0
DWIDTH 7 0
BBX 8 14 1 0
BITMAP
37
3F
38
30
30
60
60
60
60
60
C0
C0
C0
C0
ENDCHAR

STARTCHAR s
ENCODING 115
SWIDTH 410 0
DWIDTH 11 0
BBX 10 14 1 0
BITMAP
0F00
1F80
38C0
30C0
3000
3800
1E00
0700
0180
C180
C180
E300
7F00
3E00
ENDCHAR

STARTCHAR t
ENCODING 116
SWIDTH 228 0
DWIDTH 6 0
BBX 6 18 1 0
BITMAP
18
18
18
18
7C
7C
30
30
60
60
60
60
C0
C0
C0
C0
F0
70
ENDCHAR

STARTCHAR u
ENCODING 117
SWIDTH 456 0
DWIDTH 11 0
BBX 11 14 1 0
BITMAP
3060
3060
3060
3060
6060
60C0
60C0
60C0
C0C0
C0C0
C180
C380
7F80
3D80
ENDCHAR

STARTCHAR v
ENCODING 118
SWIDTH 410 0
DWIDTH 11 0
BBX 9 14 3 0
BITMAP
C180
C180
C300
C300
C600
C600
CC00
CC00
D800
D800
7000
7000
6000
6000
ENDCHAR

STARTCHAR w
ENCODING 119
SWIDTH 592 0
DWIDTH 16 0
BBX 14 14 3 0
BITMAP
C30C
C30C
C30C
C318
C718
C718
CDB0
CDB0
D9B0
D9E0
70E0
70E0
60C0
60C0
ENDCHAR

STARTCHAR x
ENCODING 120
SWIDTH 410 0
DWIDTH 11 0
BBX 10 14 1 0
BITMAP
60C0
60C0
3180
3300
1B00
1E00
0C00
1C00
1E00
3600
6300
6300
C180
C180
ENDCHAR

STARTCHAR y
ENCODING 121
SWIDTH 410 0
DWIDTH 11 0
BBX 12 19 0 -5
BITMAP
1830
1830
1860
1860
18C0
18C0
1980
1980
1B00
1B00
0E00
0E00
0C00
0C00
1800
1800
3000
F000
E000
ENDCHAR

STARTCHAR z
ENCODING 122
SWIDTH 410 0
DWIDTH 10 0
BBX 10 14 1 0
BITMAP
3FC0
3FC0
0180
0300
0600
0600
0C00
1800
3000
3000
6000
C000
FF00
FF00
ENDCHAR

STARTCHAR braceleft
ENCODING 123
SWIDTH 274 0
DWIDTH 7 0
BBX 8 24 1 -5
BITMAP
07
0C
0C
0C
18
18
18
18
18
38
70
60
30
30
30
60
60
60
60
C0
C0
C0
C0
60
ENDCHAR

STARTCHAR bar
ENCODING 124
SWIDTH 213 0
DWIDTH 5 0
BBX 5 23 1 -5
BITMAP
08
08
08
08
10
10
10
10
10
20
20
20
20
20
40
40
40
40
80
80
80
80
80
ENDCHAR

STARTCHAR braceright
ENCODING 125
SWIDTH 274 0
DWIDTH 7 0
BBX 8 24 0 -5
BITMAP
06
03
03
03
06
06
06
0C
0C
0C
06
0E
1C
18
18
18
18
18
30
30
30
30
30
E0
ENDCHAR

STARTCHAR asciitilde
ENCODING 126
SWIDTH 479 0
DWIDTH 12 0
BBX 10 4 2 6
BITMAP
3040
7C40
8F80
8300
ENDCHAR

STARTCHAR exclamdown
ENCODING 161
SWIDTH 273 0
DWIDTH 7 0
BBX 5 19 2 -5
BITMAP
18
18
00
00
30
30
30
30
30
60
60
60
60
60
C0
C0
C0
C0
C0
ENDCHAR

STARTCHAR cent
ENCODING 162
SWIDTH 456 0
DWIDTH 12 0
BBX 10 18 2 -2
BITMAP
0080
0080
0F00
3F80
32C0
62C0
64C0
6400
C400
C800
C800
C980
D180
D300
7F00
3C00
4000
4000
ENDCHAR

STARTCHAR sterling
ENCODING 163
SWIDTH 456 0
DWIDTH 12 0
BBX 12 18 0 0
BITMAP
03C0
0FE0
0C30
1830
1830
1800
1800
0C00
0C00
3F80
0C00
0C00
0C00
1800
3000
6E60
FFE0
E1C0
ENDCHAR

STARTCHAR currency
ENCODING 164
SWIDTH 456 0
DWIDTH 12 0
BBX 9 10 2 4
BITMAP
6180
7F80
3300
6180
C180
C180
C300
6600
FF00
C300
ENDCHAR

STARTCHAR yen
ENCODING 165
SWIDTH 456 0
DWIDTH 12 0
BBX 11 18 2 0
BITMAP
6060
6060
30C0
30C0
3180
1980
1B00
1B00
0E00
7F80
0C00
0C00
FF00
1800
1800
1800
1800
1800
ENDCHAR

STARTCHAR brokenbar
ENCODING 166
SWIDTH 213 0
DWIDTH 5 0
BBX 5 23 1 -5
BITMAP
08
08
08
08
08
10
10
10
10
00
00
00
00
00
40
40
40
40
80
80
80
80
80
ENDCHAR

STARTCHAR section
ENCODING 167
SWIDTH 456 0
DWIDTH 11 0
BBX 11 22 1 -4
BITMAP
03C0
07E0
0C60
0C60
0C00
0C00
1E00
2700
6380
61C0
60C0
60C0
70C0
3880
1D00
0E00
0600
0600
C600
C600
FC00
7800
ENDCHAR

STARTCHAR dieresis
ENCODING 168
SWIDTH 273 0
DWIDTH 7 0
BBX 6 2 2 15
BITMAP
CC
CC
ENDCHAR

STARTCHAR copyright
ENCODING 169
SWIDTH 604 0
DWIDTH 17 0
BBX 17 18 1 0
BITMAP
01F800
0E0600
080200
300100
20F100
431880
440880
840080
880080
880080
880080
881100
842100
43C200
400600
200800
303800
0FC000
ENDCHAR

STARTCHAR ordfeminine
ENCODING 170
SWIDTH 303 0
DWIDTH 8 0
BBX 7 11 2 8
BITMAP
1C
32
02
3E
66
44
44
4C
36
00
FC
ENDCHAR

STARTCHAR guillemotleft
ENCODING 171
SWIDTH 456 0
DWIDTH 11 0
BBX 9 6 2 4
BITMAP
1980
3300
6600
CC00
6600
3300
ENDCHAR

STARTCHAR logicalnot
ENCODING 172
SWIDTH 479 0
DWIDTH 12 0
BBX 10 6 2 3
BITMAP
FFC0
FFC0
00C0
0180
0180
0180
ENDCHAR

STARTCHAR hyphen
ENCODING 173
SWIDTH 273 0
DWIDTH 7 0
BBX 5 2 2 6
BITMAP
F8
F8
ENDCHAR

STARTCHAR registered
ENCODING 174
SWIDTH 604 0
DWIDTH 18 0
BBX 17 18 2 0
BITMAP
01F800
0E0600
080200
300100
27E100
441080
441080
841080
841080
8FE080
888080
884100
884100
482200
482600
200800
303800
0FC000
ENDCHAR

STARTCHAR macron
ENCODING 175
SWIDTH 273 0
DWIDTH 7 0
BBX 6 2 3 15
BITMAP
FC
FC
ENDCHAR

STARTCHAR degree
ENCODING 176
SWIDTH 328 0
DWIDTH 9 0
BBX 7 7 2 11
BITMAP
3C
46
82
82
82
C4
78
ENDCHAR

STARTCHAR plusminus
ENCODING 177
SWIDTH 479 0
DWIDTH 12 0
BBX 10 15 1 0
BITMAP
0600
0600
0600
0600
0600
7FC0
7FC0
0C00
0C00
0C00
0C00
0C00
0000
FF80
FF80
ENDCHAR

STARTCHAR twosuperior
ENCODING 178
SWIDTH 273 0
DWIDTH 7 0
BBX 8 11 1 7
BITMAP
3E
63
43
03
06
1C
30
60
C0
C0
FE
ENDCHAR

STARTCHAR threesuperior
ENCODING 179
SWIDTH 273 0
DWIDTH 7 0
BBX 8 11 1 7
BITMAP
3E
63
43
03
06
1C
06
06
86
CC
78
ENDCHAR

STARTCHAR acute
ENCODING 180
SWIDTH 273 0
DWIDTH 7 0
BBX 4 4 4 15
BITMAP
70
60
C0
80
ENDCHAR

STARTCHAR mu
ENCODING 181
SWIDTH 456 0
DWIDTH 11 0
BBX 13 19 -1 -5
BITMAP
0C18
0C18
0C18
0C18
1818
1830
1830
1830
3030
3030
3060
30E0
7FE0
6F60
6000
6000
C000
C000
C000
ENDCHAR

STARTCHAR paragraph
ENCODING 182
SWIDTH 440 0
DWIDTH 11 0
BBX 10 23 3 -4
BITMAP
0FC0
3FC0
7C80
7C80
FC80
F900
F900
F900
F900
F900
7200
3200
1200
1200
1200
2400
2400
2400
2400
4800
4800
4800
4800
ENDCHAR

STARTCHAR periodcentered
ENCODING 183
SWIDTH 228 0
DWIDTH 6 0
BBX 2 2 3 8
BITMAP
C0
C0
ENDCHAR

STARTCHAR cedilla
ENCODING 184
SWIDTH 273 0
DWIDTH 7 0
BBX 5 5 0 -5
BITMAP
10
30
18
D8
70
ENDCHAR

STARTCHAR onesuperior
ENCODING 185
SWIDTH 273 0
DWIDTH 7 0
BBX 4 11 3 7
BITMAP
10
30
F0
30
20
60
60
40
C0
C0
C0
ENDCHAR

STARTCHAR ordmasculine
ENCODING 186
SWIDTH 299 0
DWIDTH 7 0
BBX 7 11 2 8
BITMAP
1C
36
22
42
42
42
44
6C
38
00
FC
ENDCHAR

STARTCHAR guillemotright
ENCODING 187
SWIDTH 456 0
DWIDTH 11 0
BBX 9 6 2 4
BITMAP
6600
3300
1980
3300
6600
CC00
ENDCHAR

STARTCHAR onequarter
ENCODING 188
SWIDTH 684 0
DWIDTH 18 0
BBX 14 18 3 0
BITMAP
1008
3018
F030
3020
2060
60C0
6080
4104
C30C
C61C
C42C
0848
1898
3118
23FC
6010
C030
8030
ENDCHAR

STARTCHAR onehalf
ENCODING 189
SWIDTH 684 0
DWIDTH 18 0
BBX 15 18 3 0
BITMAP
1008
3018
F030
3020
2060
60C0
6080
417C
C3C6
C686
C406
080C
1838
3060
20C0
6180
C180
81FC
ENDCHAR

STARTCHAR threequarters
ENCODING 190
SWIDTH 684 0
DWIDTH 18 0
BBX 16 18 1 0
BITMAP
3E02
6306
430C
0308
0618
1C30
0620
0641
86C3
CD87
790B
0212
0626
0C46
08FF
1804
300C
200C
ENDCHAR

STARTCHAR questiondown
ENCODING 191
SWIDTH 501 0
DWIDTH 12 0
BBX 9 19 1 -5
BITMAP
0180
0180
0000
0000
0300
0300
0300
0600
0600
0C00
1800
3000
6000
C180
C180
C180
C300
7E00
3C00
ENDCHAR

STARTCHAR Agrave
ENCODING 192
SWIDTH 547 0
DWIDTH 14 0
BBX 12 19 1 0
BITMAP
0380
0180
00C0
0040
0000
01C0
01C0
03C0
03C0
0660
0660
0C60
1C60
1FE0
3FE0
3030
6030
E030
C030
ENDCHAR

STARTCHAR Aacute
ENCODING 193
SWIDTH 547 0
DWIDTH 14 0
BBX 12 19 1 0
BITMAP
00E0
00C0
0180
0100
0000
01C0
01C0
03C0
03C0
0660
0660
0C60
1C60
1FE0
3FE0
3030
6030
E030
C030
ENDCHAR

STARTCHAR Acircumflex
ENCODING 194
SWIDTH 547 0
DWIDTH 14 0
BBX 12 19 1 0
BITMAP
00C0
01C0
0360
0660
0000
01C0
01C0
03C0
03C0
0660
0660
0C60
1C60
1FE0
3FE0
3030
6030
E030
C030
ENDCHAR

STARTCHAR Atilde
ENCODING 195
SWIDTH 547 0
DWIDTH 14 0
BBX 13 18 1 0
BITMAP
0188
03F0
0460
0000
01C0
01C0
03C0
03C0
0660
0660
0C60
1C60
1FE0
3FE0
3030
6030
E030
C030
ENDCHAR

STARTCHAR Adieresis
ENCODING 196
SWIDTH 547 0
DWIDTH 14 0
BBX 12 17 1 0
BITMAP
0330
0330
0000
01C0
01C0
03C0
03C0
0660
0660
0C60
1C60
1FE0
3FE0
3030
6030
E030
C030
ENDCHAR

STARTCHAR Aring
ENCODING 197
SWIDTH 547 0
DWIDTH 14 0
BBX 12 19 1 0
BITMAP
01C0
0320
0220
0260
01C0
01C0
01C0
03C0
03C0
0660
0660
0C60
1C60
1FE0
3FE0
3030
6030
E030
C030
ENDCHAR

STARTCHAR AE
ENCODING 198
SWIDTH 820 0
DWIDTH 21 0
BBX 20 19 1 0
BITMAP
00FFF0
01FFF0
019800
031800
031800
063000
063000
0C3000
0C3000
183FC0
187FC0
306000
3FE000
3FE000
606000
60C000
C0C000
C0FF80
C0FF80
ENDCHAR

STARTCHAR Ccedilla
ENCODING 199
SWIDTH 592 0
DWIDTH 15 0
BBX 14 24 2 -5
BITMAP
01F0
07F8
0E1C
180C
300C
300C
6000
6000
C000
C000
C000
C000
C000
C018
C018
6030
70E0
3FC0
1F00
0400
0C00
0600
3600
1C00
ENDCHAR

STARTCHAR Egrave
ENCODING 200
SWIDTH 547 0
DWIDTH 12 0
BBX 12 19 1 0
BITMAP
0700
0300
0180
0080
0000
3FF0
3FF0
3000
3000
3000
6000
7FC0
7FC0
6000
6000
C000
C000
FFC0
FFC0
ENDCHAR

STARTCHAR Eacute
ENCODING 201
SWIDTH 547 0
DWIDTH 12 0
BBX 12 19 1 0
BITMAP
01C0
0180
0300
0200
0000
3FF0
3FF0
3000
3000
3000
6000
7FC0
7FC0
6000
6000
C000
C000
FFC0
FFC0
ENDCHAR

STARTCHAR Ecircumflex
ENCODING 202
SWIDTH 547 0
DWIDTH 12 0
BBX 12 19 1 0
BITMAP
0180
0380
06C0
0CC0
0000
3FF0
3FF0
3000
3000
3000
6000
7FC0
7FC0
6000
6000
C000
C000
FFC0
FFC0
ENDCHAR

STARTCHAR Edieresis
ENCODING 203
SWIDTH 547 0
DWIDTH 12 0
BBX 12 17 1 0
BITMAP
0CC0
0CC0
0000
3FF0
3FF0
3000
3000
3000
6000
7FC0
7FC0
6000
6000
C000
C000
FFC0
FFC0
ENDCHAR

STARTCHAR Igrave
ENCODING 204
SWIDTH 228 0
DWIDTH 6 0
BBX 5 19 2 0
BITMAP
70
30
18
08
00
30
30
30
30
70
60
60
60
60
E0
C0
C0
C0
C0
ENDCHAR

STARTCHAR Iacute
ENCODING 205
SWIDTH 228 0
DWIDTH 6 0
BBX 6 19 2 0
BITMAP
1C
18
30
20
00
30
30
30
30
70
60
60
60
60
E0
C0
C0
C0
C0
ENDCHAR

STARTCHAR Icircumflex
ENCODING 206
SWIDTH 228 0
DWIDTH 6 0
BBX 6 19 2 0
BITMAP
18
38
6C
CC
00
30
30
30
30
70
60
60
60
60
E0
C0
C0
C0
C0
ENDCHAR

STARTCHAR Idieresis
ENCODING 207
SWIDTH 228 0
DWIDTH 6 0
BBX 6 17 2 0
BITMAP
6C
6C
00
30
30
30
30
70
60
60
60
60
E0
C0
C0
C0
C0
ENDCHAR

STARTCHAR Eth
ENCODING 208
SWIDTH 592 0
DWIDTH 16 0
BBX 14 19 2 0
BITMAP
1FC0
1FF0
1838
1818
180C
300C
300C
300C
300C
FC0C
FC0C
6018
6018
6018
6030
C070
C0E0
FFC0
FF00
ENDCHAR

STARTCHAR Ntilde
ENCODING 209
SWIDTH 592 0
DWIDTH 15 0
BBX 14 18 1 0
BITMAP
0188
03F0
0460
0000
380C
380C
3C0C
3C0C
3618
6618
6318
6318
6198
61B0
C0F0
C0F0
C070
C070
ENDCHAR

STARTCHAR Ograve
ENCODING 210
SWIDTH 638 0
DWIDTH 16 0
BBX 15 19 2 0
BITMAP
01C0
00C0
0060
0020
0000
03F0
0FFC
1C0C
3006
6006
6006
C006
C006
C00C
C00C
C018
6070
7FE0
1F80
ENDCHAR

STARTCHAR Oacute
ENCODING 211
SWIDTH 638 0
DWIDTH 16 0
BBX 15 19 2 0
BITMAP
0070
0060
00C0
0080
0000
03F0
0FFC
1C0C
3006
6006
6006
C006
C006
C00C
C00C
C018
6070
7FE0
1F80
ENDCHAR

STARTCHAR Ocircumflex
ENCODING 212
SWIDTH 638 0
DWIDTH 16 0
BBX 15 19 2 0
BITMAP
0060
00E0
01B0
0330
0000
03F0
0FFC
1C0C
3006
6006
6006
C006
C006
C00C
C00C
C018
6070
7FE0
1F80
ENDCHAR

STARTCHAR Otilde
ENCODING 213
SWIDTH 638 0
DWIDTH 16 0
BBX 15 18 2 0
BITMAP
0188
03F0
0460
0000
03F0
0FFC
1C0C
3006
6006
6006
C006
C006
C00C
C00C
C018
6070
7FE0
1F80
ENDCHAR

STARTCHAR Odieresis
ENCODING 214
SWIDTH 638 0
DWIDTH 16 0
BBX 15 17 2 0
BITMAP
0330
0330
0000
03F0
0FFC
1C0C
3006
6006
6006
C006
C006
C00C
C00C
C018
6070
7FE0
1F80
ENDCHAR

STARTCHAR multiply
ENCODING 215
SWIDTH 479 0
DWIDTH 12 0
BBX 11 12 1 0
BITMAP
6020
6060
30C0
1980
1B00
0E00
0E00
1B00
3300
6180
C0C0
80C0
ENDCHAR

STARTCHAR Oslash
ENCODING 216
SWIDTH 638 0
DWIDTH 16 0
BBX 20 19 -1 0
BITMAP
003E30
00FF60
01C3C0
030180
0603C0
0606C0
0C0CC0
0C18C0
1830C0
1860C0
18C0C0
198180
1B0180
1E0300
1C0300
1C0600
3E1C00
67F800
C3E000
ENDCHAR

STARTCHAR Ugrave
ENCODING 217
SWIDTH 592 0
DWIDTH 15 0
BBX 12 19 3 0
BITMAP
0700
0300
0180
0080
0000
3030
3030
3030
3030
6060
6060
6060
6060
C0C0
C0C0
C0C0
E180
7F80
3E00
ENDCHAR

STARTCHAR Uacute
ENCODING 218
SWIDTH 592 0
DWIDTH 15 0
BBX 12 19 3 0
BITMAP
01C0
0180
0300
0200
0000
3030
3030
3030
3030
6060
6060
6060
6060
C0C0
C0C0
C0C0
E180
7F80
3E00
ENDCHAR

STARTCHAR Ucircumflex
ENCODING 219
SWIDTH 592 0
DWIDTH 15 0
BBX 12 19 3 0
BITMAP
0180
0380
06C0
0CC0
0000
3030
3030
3030
3030
6060
6060
6060
6060
C0C0
C0C0
C0C0
E180
7F80
3E00
ENDCHAR

STARTCHAR Udieresis
ENCODING 220
SWIDTH 592 0
DWIDTH 15 0
BBX 12 17 3 0
BITMAP
0CC0
0CC0
0000
3030
3030
3030
3030
6060
6060
6060
6060
C0C0
C0C0
C0C0
E180
7F80
3E00
ENDCHAR

STARTCHAR Yacute
ENCODING 221
SWIDTH 547 0
DWIDTH 14 0
BBX 11 19 4 0
BITMAP
0380
0300
0600
0400
0000
C060
C060
60C0
6180
3300
3E00
1C00
1800
1800
1800
3000
3000
3000
3000
ENDCHAR

STARTCHAR Thorn
ENCODING 222
SWIDTH 547 0
DWIDTH 13 0
BBX 13 19 1 0
BITMAP
1800
1800
1800
1800
1FC0
3FF0
3030
3018
3018
3018
6030
6070
7FE0
7FC0
6000
C000
C000
C000
C000
ENDCHAR

STARTCHAR germandbls
ENCODING 223
SWIDTH 501 0
DWIDTH 13 0
BBX 11 19 2 0
BITMAP
0780
0FC0
0C60
1860
1860
3060
3060
30C0
3380
3380
60C0
60C0
60C0
60C0
60C0
C180
C180
CF00
CE00
ENDCHAR

STARTCHAR agrave
ENCODING 224
SWIDTH 456 0
DWIDTH 11 0
BBX 10 19 1 0
BITMAP
0E00
0600
0300
0100
0000
0F80
1FC0
30C0
30C0
00C0
0F80
3F80
7180
C180
C300
C300
C700
7F80
3980
ENDCHAR

STARTCHAR aacute
ENCODING 225
SWIDTH 456 0
DWIDTH 11 0
BBX 10 19 1 0
BITMAP
01C0
0180
0300
0200
0000
0F80
1FC0
30C0
30C0
00C0
0F80
3F80
7180
C180
C300
C300
C700
7F80
3980
ENDCHAR

STARTCHAR acircumflex
ENCODING 226
SWIDTH 456 0
DWIDTH 11 0
BBX 10 19 1 0
BITMAP
0180
0380
06C0
0CC0
0000
0F80
1FC0
30C0
30C0
00C0
0F80
3F80
7180
C180
C300
C300
C700
7F80
3980
ENDCHAR

STARTCHAR atilde
ENCODING 227
SWIDTH 456 0
DWIDTH 11 0
BBX 11 18 1 0
BITMAP
0620
0FC0
1180
0000
0F80
1FC0
30C0
30C0
00C0
0F80
3F80
7180
C180
C300
C300
C700
7F80
3980
ENDCHAR

STARTCHAR adieresis
ENCODING 228
SWIDTH 456 0
DWIDTH 11 0
BBX 10 17 1 0
BITMAP
0CC0
0CC0
0000
0F80
1FC0
30C0
30C0
00C0
0F80
3F80
7180
C180
C300
C300
C700
7F80
3980
ENDCHAR

STARTCHAR aring
ENCODING 229
SWIDTH 456 0
DWIDTH 11 0
BBX 10 19 1 0
BITMAP
0700
0C80
0880
0980
0700
0F80
1FC0
30C0
30C0
00C0
0F80
3F80
7180
C180
C300
C300
C700
7F80
3980
ENDCHAR

STARTCHAR ae
ENCODING 230
SWIDTH 729 0
DWIDTH 18 0
BBX 17 14 1 0
BITMAP
0F1E00
1FFF00
30E180
30C180
00C180
0FFF80
3FFF80
718000
C18000
C18300
C38300
C78600
7EFE00
387800
ENDCHAR

STARTCHAR ccedilla
ENCODING 231
SWIDTH 410 0
DWIDTH 10 0
BBX 10 19 1 -5
BITMAP
0F00
3F80
30C0
60C0
60C0
6000
C000
C000
C000
C180
C180
C300
7F00
3C00
1000
3000
1800
D800
7000
ENDCHAR

STARTCHAR egrave
ENCODING 232
SWIDTH 456 0
DWIDTH 11 0
BBX 10 19 1 0
BITMAP
1C00
0C00
0600
0200
0000
0F00
3F80
30C0
60C0
60C0
7FC0
FFC0
C000
C000
C180
C180
C300
7F00
3C00
ENDCHAR

STARTCHAR eacute
ENCODING 233
SWIDTH 456 0
DWIDTH 11 0
BBX 10 19 1 0
BITMAP
0380
0300
0600
0400
0000
0F00
3F80
30C0
60C0
60C0
7FC0
FFC0
C000
C000
C180
C180
C300
7F00
3C00
ENDCHAR

STARTCHAR ecircumflex
ENCODING 234
SWIDTH 456 0
DWIDTH 11 0
BBX 10 19 1 0
BITMAP
0300
0700
0D80
1980
0000
0F00
3F80
30C0
60C0
60C0
7FC0
FFC0
C000
C000
C180
C180
C300
7F00
3C00
ENDCHAR

STARTCHAR edieresis
ENCODING 235
SWIDTH 456 0
DWIDTH 11 0
BBX 10 17 1 0
BITMAP
1980
1980
0000
0F00
3F80
30C0
60C0
60C0
7FC0
FFC0
C000
C000
C180
C180
C300
7F00
3C00
ENDCHAR

STARTCHAR igrave
ENCODING 236
SWIDTH 228 0
DWIDTH 5 0
BBX 5 19 1 0
BITMAP
70
30
18
08
00
30
30
30
30
60
60
60
60
60
C0
C0
C0
C0
C0
ENDCHAR

STARTCHAR iacute
ENCODING 237
SWIDTH 228 0
DWIDTH 5 0
BBX 6 19 1 0
BITMAP
1C
18
30
20
00
30
30
30
30
60
60
60
60
60
C0
C0
C0
C0
C0
ENDCHAR

STARTCHAR icircumflex
ENCODING 238
SWIDTH 228 0
DWIDTH 5 0
BBX 6 19 1 0
BITMAP
18
38
6C
CC
00
30
30
30
30
60
60
60
60
60
C0
C0
C0
C0
C0
ENDCHAR

STARTCHAR idieresis
ENCODING 239
SWIDTH 228 0
DWIDTH 5 0
BBX 6 17 1 0
BITMAP
CC
CC
00
30
30
30
30
60
60
60
60
60
C0
C0
C0
C0
C0
ENDCHAR

STARTCHAR eth
ENCODING 240
SWIDTH 456 0
DWIDTH 11 0
BBX 10 19 1 0
BITMAP
3300
1C00
1C00
6600
0300
0F80
3F80
30C0
60C0
60C0
60C0
C0C0
C0C0
C180
C180
C180
C300
7F00
3C00
ENDCHAR

STARTCHAR ntilde
ENCODING 241
SWIDTH 456 0
DWIDTH 12 0
BBX 11 18 1 0
BITMAP
0620
0FC0
1180
0000
33C0
37E0
3C60
3860
3060
6060
60C0
60C0
60C0
60C0
C180
C180
C180
C180
ENDCHAR

STARTCHAR ograve
ENCODING 242
SWIDTH 456 0
DWIDTH 11 0
BBX 10 19 1 0
BITMAP
1C00
0C00
0600
0200
0000
0F00
3F80
30C0
60C0
60C0
60C0
C0C0
C0C0
C180
C180
C180
C300
7F00
3C00
ENDCHAR

STARTCHAR oacute
ENCODING 243
SWIDTH 456 0
DWIDTH 11 0
BBX 10 19 1 0
BITMAP
0380
0300
0600
0400
0000
0F00
3F80
30C0
60C0
60C0
60C0
C0C0
C0C0
C180
C180
C180
C300
7F00
3C00
ENDCHAR

STARTCHAR ocircumflex
ENCODING 244
SWIDTH 456 0
DWIDTH 11 0
BBX 10 19 1 0
BITMAP
0300
0700
0D80
1980
0000
0F00
3F80
30C0
60C0
60C0
60C0
C0C0
C0C0
C180
C180
C180
C300
7F00
3C00
ENDCHAR

STARTCHAR otilde
ENCODING 245
SWIDTH 456 0
DWIDTH 11 0
BBX 11 18 1 0
BITMAP
0620
0FC0
1180
0000
0F00
3F80
30C0
60C0
60C0
60C0
C0C0
C0C0
C180
C180
C180
C300
7F00
3C00
ENDCHAR

STARTCHAR odieresis
ENCODING 246
SWIDTH 456 0
DWIDTH 11 0
BBX 10 17 1 0
BITMAP
1980
1980
0000
0F00
3F80
30C0
60C0
60C0
60C0
C0C0
C0C0
C180
C180
C180
C300
7F00
3C00
ENDCHAR

STARTCHAR divide
ENCODING 247
SWIDTH 479 0
DWIDTH 12 0
BBX 9 10 2 1
BITMAP
0C00
0C00
0000
0000
FF80
FF80
0000
0000
1800
1800
ENDCHAR

STARTCHAR oslash
ENCODING 248
SWIDTH 501 0
DWIDTH 11 0
BBX 14 14 -1 0
BITMAP
03CC
0FF8
0C30
1870
18B0
19B0
3330
3330
3660
3460
3860
30C0
7FC0
CF00
ENDCHAR

STARTCHAR ugrave
ENCODING 249
SWIDTH 456 0
DWIDTH 11 0
BBX 11 19 1 0
BITMAP
0E00
0600
0300
0100
0000
3060
3060
3060
3060
6060
60C0
60C0
60C0
C0C0
C0C0
C180
C380
7F80
3D80
ENDCHAR

STARTCHAR uacute
ENCODING 250
SWIDTH 456 0
DWIDTH 11 0
BBX 11 19 1 0
BITMAP
0380
0300
0600
0400
0000
3060
3060
3060
3060
6060
60C0
60C0
60C0
C0C0
C0C0
C180
C380
7F80
3D80
ENDCHAR

STARTCHAR ucircumflex
ENCODING 251
SWIDTH 456 0
DWIDTH 11 0
BBX 11 19 1 0
BITMAP
0180
0380
06C0
0CC0
0000
3060
3060
3060
3060
6060
60C0
60C0
60C0
C0C0
C0C0
C180
C380
7F80
3D80
ENDCHAR

STARTCHAR udieresis
ENCODING 252
SWIDTH 456 0
DWIDTH 11 0
BBX 11 17 1 0
BITMAP
0CC0
0CC0
0000
3060
3060
3060
3060
6060
60C0
60C0
60C0
C0C0
C0C0
C180
C380
7F80
3D80
ENDCHAR

STARTCHAR yacute
ENCODING 253
SWIDTH 410 0
DWIDTH 11 0
BBX 12 24 0 -5
BITMAP
00E0
00C0
0180
0100
0000
1830
1830
1860
1860
18C0
18C0
1980
1980
1B00
1B00
0E00
0E00
0C00
0C00
1800
1800
3000
F000
E000
ENDCHAR

STARTCHAR thorn
ENCODING 254
SWIDTH 456 0
DWIDTH 11 0
BBX 12 24 -1 -5
BITMAP
0C00
0C00
0C00
0C00
1800
19C0
1FE0
1E30
1830
1830
3030
3030
3030
3030
3060
7060
78C0
6FC0
6700
6000
C000
C000
C000
C000
ENDCHAR

STARTCHAR ydieresis
ENCODING 255
SWIDTH 410 0
DWIDTH 11 0
BBX 12 22 0 -5
BITMAP
0660
0660
0000
1830
1830
1860
1860
18C0
18C0
1980
1980
1B00
1B00
0E00
0E00
0C00
0C00
1800
1800
3000
F000
E000
ENDCHAR
ENDFONT
